# WaveFront *.obj file (generated by Autodesk ATF)

mtllib f597e5b3-c3e4-4aa2-8edd-a09b3663bfe6.zip.mtl

g Body1

v 275.000000 141.400000 -1.270000
v 289.803424 141.400000 -1.270000
v 200.000000 141.400000 -165.000000
v -200.000000 141.400000 -165.000000
v -289.803424 141.400000 -1.270000
v -275.000000 141.400000 -1.270000
v -275.000000 141.400000 1.270000
v -289.803424 141.400000 1.270000
v -200.000000 141.400000 165.000000
v 200.000000 141.400000 165.000000
v 289.803424 141.400000 1.270000
v 275.000000 141.400000 1.270000
v 289.803424 140.600000 -1.270000
v 200.000000 140.600000 -165.000000
v -200.000000 140.600000 -165.000000
v -289.803424 140.600000 -1.270000
v -275.000000 140.600000 -1.270000
v -275.000000 140.600000 1.270000
v -289.803424 140.600000 1.270000
v -200.000000 140.600000 165.000000
v 200.000000 140.600000 165.000000
v 289.803424 140.600000 1.270000
v 275.000000 140.600000 1.270000
v 275.000000 140.600000 -1.270000
vt -0.127000 28.980342 0.000000
vt -16.500000 20.000000 0.000000
vt -0.127000 27.500000 0.000000
vt -0.127000 -27.500000 0.000000
vt 0.127000 -27.500000 0.000000
vt -16.500000 -20.000000 0.000000
vt -0.127000 -28.980342 0.000000
vt 0.127000 -28.980342 0.000000
vt 16.500000 -20.000000 0.000000
vt 0.127000 27.500000 0.000000
vt 16.500000 20.000000 0.000000
vt 0.127000 28.980342 0.000000
vt 18.674091 0.040000 0.000000
vt -0.000000 0.040000 0.000000
vt 18.674091 -0.040000 0.000000
vt 0.000000 -0.040000 0.000000
vt 40.000000 0.040000 0.000000
vt 0.000000 0.040000 0.000000
vt 40.000000 -0.040000 0.000000
vt 0.000000 -0.040000 0.000000
vt 18.674091 0.040000 0.000000
vt 0.000000 0.040000 0.000000
vt 18.674091 -0.040000 0.000000
vt -0.000000 -0.040000 0.000000
vt 1.480342 0.040000 0.000000
vt -0.000000 0.040000 0.000000
vt 1.480342 -0.040000 0.000000
vt 0.000000 -0.040000 0.000000
vt 0.254000 0.040000 0.000000
vt 0.000000 0.040000 0.000000
vt 0.254000 -0.040000 0.000000
vt -0.000000 -0.040000 0.000000
vt 1.480342 0.040000 0.000000
vt -0.000000 0.040000 0.000000
vt 1.480342 -0.040000 0.000000
vt 0.000000 -0.040000 0.000000
vt 18.674091 0.040000 0.000000
vt 0.000000 0.040000 0.000000
vt 18.674091 -0.040000 0.000000
vt -0.000000 -0.040000 0.000000
vt 40.000000 0.040000 0.000000
vt 0.000000 0.040000 0.000000
vt 40.000000 -0.040000 0.000000
vt 0.000000 -0.040000 0.000000
vt 18.674091 0.040000 0.000000
vt -0.000000 0.040000 0.000000
vt 18.674091 -0.040000 0.000000
vt 0.000000 -0.040000 0.000000
vt 1.480342 0.040000 0.000000
vt 0.000000 0.040000 0.000000
vt 1.480342 -0.040000 0.000000
vt 0.000000 -0.040000 0.000000
vt 0.254000 0.040000 0.000000
vt -0.000000 0.040000 0.000000
vt 0.254000 -0.040000 0.000000
vt 0.000000 -0.040000 0.000000
vt 1.480342 0.040000 0.000000
vt 0.000000 0.040000 0.000000
vt 1.480342 -0.040000 0.000000
vt -0.000000 -0.040000 0.000000
vt 0.127000 28.980342 0.000000
vt 0.127000 27.500000 0.000000
vt 16.500000 20.000000 0.000000
vt 16.500000 -20.000000 0.000000
vt 0.127000 -27.500000 0.000000
vt 0.127000 -28.980342 0.000000
vt -0.127000 27.500000 0.000000
vt -0.127000 -27.500000 0.000000
vt -16.500000 20.000000 0.000000
vt -16.500000 -20.000000 0.000000
vt -0.127000 28.980342 0.000000
vt -0.127000 -28.980342 0.000000
vn 0.000000 0.100000 -0.000000
vn 0.000000 0.100000 -0.000000
vn 0.000000 0.100000 -0.000000
vn 0.000000 0.100000 -0.000000
vn 0.000000 0.100000 -0.000000
vn 0.000000 0.100000 -0.000000
vn 0.000000 0.100000 -0.000000
vn 0.000000 0.100000 -0.000000
vn 0.000000 0.100000 -0.000000
vn 0.000000 0.100000 -0.000000
vn 0.000000 0.100000 -0.000000
vn 0.000000 0.100000 -0.000000
vn 0.087678 -0.000000 -0.048090
vn 0.087678 -0.000000 -0.048090
vn 0.087678 -0.000000 -0.048090
vn 0.087678 -0.000000 -0.048090
vn -0.000000 -0.000000 -0.100000
vn -0.000000 -0.000000 -0.100000
vn -0.000000 -0.000000 -0.100000
vn -0.000000 -0.000000 -0.100000
vn -0.087678 -0.000000 -0.048090
vn -0.087678 -0.000000 -0.048090
vn -0.087678 -0.000000 -0.048090
vn -0.087678 -0.000000 -0.048090
vn 0.000000 0.000000 0.100000
vn 0.000000 0.000000 0.100000
vn 0.000000 0.000000 0.100000
vn 0.000000 0.000000 0.100000
vn -0.100000 0.000000 0.000000
vn -0.100000 0.000000 0.000000
vn -0.100000 0.000000 0.000000
vn -0.100000 0.000000 0.000000
vn 0.000000 -0.000000 -0.100000
vn 0.000000 -0.000000 -0.100000
vn 0.000000 -0.000000 -0.100000
vn 0.000000 -0.000000 -0.100000
vn -0.087678 0.000000 0.048090
vn -0.087678 0.000000 0.048090
vn -0.087678 0.000000 0.048090
vn -0.087678 0.000000 0.048090
vn 0.000000 0.000000 0.100000
vn 0.000000 0.000000 0.100000
vn 0.000000 0.000000 0.100000
vn 0.000000 0.000000 0.100000
vn 0.087678 0.000000 0.048090
vn 0.087678 0.000000 0.048090
vn 0.087678 0.000000 0.048090
vn 0.087678 0.000000 0.048090
vn -0.000000 -0.000000 -0.100000
vn -0.000000 -0.000000 -0.100000
vn -0.000000 -0.000000 -0.100000
vn -0.000000 -0.000000 -0.100000
vn 0.100000 -0.000000 -0.000000
vn 0.100000 -0.000000 -0.000000
vn 0.100000 -0.000000 -0.000000
vn 0.100000 -0.000000 -0.000000
vn -0.000000 0.000000 0.100000
vn -0.000000 0.000000 0.100000
vn -0.000000 0.000000 0.100000
vn -0.000000 0.000000 0.100000
vn 0.000000 -0.100000 0.000000
vn 0.000000 -0.100000 0.000000
vn 0.000000 -0.100000 0.000000
vn 0.000000 -0.100000 0.000000
vn 0.000000 -0.100000 0.000000
vn 0.000000 -0.100000 0.000000
vn 0.000000 -0.100000 0.000000
vn 0.000000 -0.100000 0.000000
vn 0.000000 -0.100000 0.000000
vn 0.000000 -0.100000 0.000000
vn 0.000000 -0.100000 0.000000
vn 0.000000 -0.100000 0.000000
usemtl Opaque(160,160,160)
f 2/1/1 3/2/2 1/3/3
f 1/3/3 3/2/2 6/4/4
f 1/3/3 6/4/4 7/5/5
f 3/2/2 4/6/6 6/4/4
f 6/4/4 4/6/6 5/7/7
f 8/8/8 9/9/9 7/5/5
f 7/5/5 9/9/9 12/10/10
f 7/5/5 12/10/10 1/3/3
f 9/9/9 10/11/11 12/10/10
f 12/10/10 10/11/11 11/12/12
f 13/13/13 14/14/14 2/15/15
f 2/15/15 14/14/14 3/16/16
f 14/17/17 15/18/18 3/19/19
f 3/19/19 15/18/18 4/20/20
f 15/21/21 16/22/22 4/23/23
f 4/23/23 16/22/22 5/24/24
f 16/25/25 17/26/26 5/27/27
f 5/27/27 17/26/26 6/28/28
f 17/29/29 18/30/30 6/31/31
f 6/31/31 18/30/30 7/32/32
f 18/33/33 19/34/34 7/35/35
f 7/35/35 19/34/34 8/36/36
f 19/37/37 20/38/38 8/39/39
f 8/39/39 20/38/38 9/40/40
f 20/41/41 21/42/42 9/43/43
f 9/43/43 21/42/42 10/44/44
f 21/45/45 22/46/46 10/47/47
f 10/47/47 22/46/46 11/48/48
f 22/49/49 23/50/50 11/51/51
f 11/51/51 23/50/50 12/52/52
f 23/53/53 24/54/54 12/55/55
f 12/55/55 24/54/54 1/56/56
f 24/57/57 13/58/58 1/59/59
f 1/59/59 13/58/58 2/60/60
f 13/61/61 24/62/62 14/63/63
f 14/63/63 24/62/62 15/64/64
f 15/64/64 24/62/62 17/65/65
f 15/64/64 17/65/65 16/66/66
f 24/62/62 23/67/67 17/65/65
f 17/65/65 23/67/67 18/68/68
f 18/68/68 23/67/67 21/69/69
f 18/68/68 21/69/69 20/70/70
f 23/67/67 22/71/71 21/69/69
f 20/70/70 19/72/72 18/68/68
# 24 vertices
# 72 texture params
# 72 normals
# 44 facets

# 1 groups
