                                                                        S      1
,,27HLinia TEM rev.3.0 srodek v1,27HLinia TEM rev.3.0 srodek v1,7HunknowG      1
n,7Hunknown,32,38,7,99,15,,1.,2,2HMM,1,0.08,15H20230225.112722,0.01,    G      2
10000.,7Hunknown,7Hunknown,11,0,15H20221115.223851;                     G      3
     186       1                                                00000000D      1
     186            -167       1       0                               0D      2
     514       2                                                00010000D      3
     514                       2       1                               0D      4
     510       4                                                00010000D      5
     510            -167       1       1                               0D      6
     510       5                                                00010000D      7
     510            -167       1       1                               0D      8
     510       6                                                00010000D      9
     510            -167       1       1                               0D     10
     510       7                                                00010000D     11
     510            -167       1       1                               0D     12
     510       8                                                00010000D     13
     510            -167       1       1                               0D     14
     510       9                                                00010000D     15
     510            -167       1       1                               0D     16
     510      10                                                00010000D     17
     510            -167       1       1                               0D     18
     510      11                                                00010000D     19
     510            -167       1       1                               0D     20
     510      12                                                00010000D     21
     510            -167       1       1                               0D     22
     510      13                                                00010000D     23
     510            -167       1       1                               0D     24
     510      14                                                00010000D     25
     510            -167       1       1                               0D     26
     510      15                                                00010000D     27
     510            -167       1       1                               0D     28
     510      16                                                00010000D     29
     510            -167       1       1                               0D     30
     510      17                                                00010000D     31
     510            -167       1       1                               0D     32
     508      18                                                00010000D     33
     508                       3       1                               0D     34
     508      21                                                00010000D     35
     508                       1       1                               0D     36
     508      22                                                00010000D     37
     508                       1       1                               0D     38
     508      23                                                00010000D     39
     508                       1       1                               0D     40
     508      24                                                00010000D     41
     508                       1       1                               0D     42
     508      25                                                00010000D     43
     508                       1       1                               0D     44
     508      26                                                00010000D     45
     508                       1       1                               0D     46
     508      27                                                00010000D     47
     508                       1       1                               0D     48
     508      28                                                00010000D     49
     508                       1       1                               0D     50
     508      29                                                00010000D     51
     508                       1       1                               0D     52
     508      30                                                00010000D     53
     508                       1       1                               0D     54
     508      31                                                00010000D     55
     508                       1       1                               0D     56
     508      32                                                00010000D     57
     508                       1       1                               0D     58
     508      33                                                00010000D     59
     508                       3       1                               0D     60
     126      36                                                00010000D     61
     126       0               3       0                               0D     62
     126      39                                                00010000D     63
     126       0               3       0                               0D     64
     126      42                                                00010000D     65
     126       0               2       0                               0D     66
     126      44                                                00010000D     67
     126       0               3       0                               0D     68
     126      47                                                00010000D     69
     126       0               3       0                               0D     70
     126      50                                                00010000D     71
     126       0               3       0                               0D     72
     126      53                                                00010000D     73
     126       0               3       0                               0D     74
     126      56                                                00010000D     75
     126       0               3       0                               0D     76
     126      59                                                00010000D     77
     126       0               2       0                               0D     78
     126      61                                                00010000D     79
     126       0               3       0                               0D     80
     126      64                                                00010000D     81
     126       0               3       0                               0D     82
     126      67                                                00010000D     83
     126       0               3       0                               0D     84
     126      70                                                00010000D     85
     126       0               5       0                               0D     86
     126      75                                                00010000D     87
     126       0               3       0                               0D     88
     126      78                                                00010000D     89
     126       0               4       0                               0D     90
     126      82                                                00010000D     91
     126       0               2       0                               0D     92
     126      84                                                00010000D     93
     126       0               4       0                               0D     94
     126      88                                                00010000D     95
     126       0               3       0                               0D     96
     126      91                                                00010000D     97
     126       0               4       0                               0D     98
     126      95                                                00010000D     99
     126       0               3       0                               0D    100
     126      98                                                00010000D    101
     126       0               4       0                               0D    102
     126     102                                                00010000D    103
     126       0               3       0                               0D    104
     126     105                                                00010000D    105
     126       0               4       0                               0D    106
     126     109                                                00010000D    107
     126       0               3       0                               0D    108
     126     112                                                00010000D    109
     126       0               4       0                               0D    110
     126     116                                                00010000D    111
     126       0               3       0                               0D    112
     126     119                                                00010000D    113
     126       0               4       0                               0D    114
     126     123                                                00010000D    115
     126       0               2       0                               0D    116
     126     125                                                00010000D    117
     126       0               3       0                               0D    118
     126     128                                                00010000D    119
     126       0               3       0                               0D    120
     126     131                                                00010000D    121
     126       0               4       0                               0D    122
     126     135                                                00010000D    123
     126       0               3       0                               0D    124
     126     138                                                00010000D    125
     126       0               4       0                               0D    126
     126     142                                                00010000D    127
     126       0               2       0                               0D    128
     126     144                                                00010000D    129
     126       0               4       0                               0D    130
     126     148                                                00010000D    131
     126       0               3       0                               0D    132
     128     151                                                00010000D    133
     128       0    -167       6       0                               0D    134
     128     157                                                00010000D    135
     128       0    -167       8       0                               0D    136
     128     165                                                00010000D    137
     128       0    -167       5       0                               0D    138
     128     170                                                00010000D    139
     128       0    -167       8       0                               0D    140
     128     178                                                00010000D    141
     128       0    -167       7       0                               0D    142
     128     185                                                00010000D    143
     128       0    -167       6       0                               0D    144
     128     191                                                00010000D    145
     128       0    -167       7       0                               0D    146
     128     198                                                00010000D    147
     128       0    -167       8       0                               0D    148
     128     206                                                00010000D    149
     128       0    -167       5       0                               0D    150
     128     211                                                00010000D    151
     128       0    -167       8       0                               0D    152
     128     219                                                00010000D    153
     128       0    -167       7       0                               0D    154
     128     226                                                00010000D    155
     128       0    -167       6       0                               0D    156
     128     232                                                00010000D    157
     128       0    -167       7       0                               0D    158
     128     239                                                00010000D    159
     128       0    -167       6       0                               0D    160
     502     245                                                00010000D    161
     502                      13       1                               0D    162
     504     258                                                00010001D    163
     504                      10       1                               0D    164
     406     268                                                00000000D    165
     406                       1      15                               0D    166
     314     269                                                00000200D    167
     314                       2       0                               0D    168
     314     271                                                00000200D    169
     314                       1       0                               0D    170
186,3,1,0,0,1,165;                                                     1P      1
514,14,5,1,7,1,9,1,11,1,13,1,15,1,17,1,19,1,21,1,23,1,25,1,27,1,       3P      2
29,1,31,1;                                                             3P      3
510,133,1,1,33;                                                        5P      4
510,135,1,1,35;                                                        7P      5
510,137,1,1,37;                                                        9P      6
510,139,1,1,39;                                                       11P      7
510,141,1,1,41;                                                       13P      8
510,143,1,1,43;                                                       15P      9
510,145,1,1,45;                                                       17P     10
510,147,1,1,47;                                                       19P     11
510,149,1,1,49;                                                       21P     12
510,151,1,1,51;                                                       23P     13
510,153,1,1,53;                                                       25P     14
510,155,1,1,55;                                                       27P     15
510,157,1,1,57;                                                       29P     16
510,159,1,1,59;                                                       31P     17
508,12,0,163,1,1,0,0,163,2,1,0,0,163,3,1,0,0,163,4,1,0,0,163,5,       33P     18
1,0,0,163,6,1,0,0,163,7,1,0,0,163,8,1,0,0,163,9,1,0,0,163,10,1,       33P     19
0,0,163,11,1,0,0,163,12,1,0;                                          33P     20
508,4,0,163,13,0,0,0,163,14,0,0,0,163,15,0,0,0,163,2,0,0;             35P     21
508,4,0,163,15,1,0,0,163,16,0,0,0,163,17,0,0,0,163,3,0,0;             37P     22
508,4,0,163,17,1,0,0,163,18,0,0,0,163,19,0,0,0,163,4,0,0;             39P     23
508,4,0,163,19,1,0,0,163,20,0,0,0,163,21,0,0,0,163,5,0,0;             41P     24
508,4,0,163,21,1,0,0,163,22,0,0,0,163,23,0,0,0,163,6,0,0;             43P     25
508,4,0,163,23,1,0,0,163,24,0,0,0,163,25,0,0,0,163,7,0,0;             45P     26
508,4,0,163,25,1,0,0,163,26,0,0,0,163,27,0,0,0,163,8,0,0;             47P     27
508,4,0,163,27,1,0,0,163,28,0,0,0,163,29,0,0,0,163,9,0,0;             49P     28
508,4,0,163,29,1,0,0,163,30,0,0,0,163,31,0,0,0,163,10,0,0;            51P     29
508,4,0,163,31,1,0,0,163,32,0,0,0,163,33,0,0,0,163,11,0,0;            53P     30
508,4,0,163,33,1,0,0,163,34,0,0,0,163,35,0,0,0,163,12,0,0;            55P     31
508,4,0,163,35,1,0,0,163,36,0,0,0,163,13,1,0,0,163,1,0,0;             57P     32
508,12,0,163,36,1,0,0,163,34,1,0,0,163,32,1,0,0,163,30,1,0,0,         59P     33
163,28,1,0,0,163,26,1,0,0,163,24,1,0,0,163,22,1,0,0,163,20,1,0,       59P     34
0,163,18,1,0,0,163,16,1,0,0,163,14,1,0;                               59P     35
126,1,1,0,0,1,0,-1.4803424242424,-1.4803424242424,0.,0.,1.,1.,        61P     36
275.,141.4,-1.2700000000001,289.803424242424,141.4,                   61P     37
-1.27000000000009,-1.4803424242424,0.,0.,0.,0.;                       61P     38
126,1,1,0,0,1,0,-18.6740911172846,-18.6740911172846,0.,0.,1.,1.,      63P     39
289.803424242424,141.4,-1.26999999999999,200.,141.4,-165.,            63P     40
-18.6740911172846,0.,0.,0.,0.;                                        63P     41
126,1,1,0,0,1,0,-40.,-40.,0.,0.,1.,1.,200.,141.4,-165.,-200.,         65P     42
141.4,-165.,-40.,0.,0.,0.,0.;                                         65P     43
126,1,1,0,0,1,0,-18.6740911172846,-18.6740911172846,0.,0.,1.,1.,      67P     44
-200.,141.4,-165.,-289.803424242424,141.4,-1.2700000000001,           67P     45
-18.6740911172846,0.,0.,0.,0.;                                        67P     46
126,1,1,0,0,1,0,-1.4803424242424,-1.4803424242424,0.,0.,1.,1.,        69P     47
-289.803424242424,141.4,-1.2700000000001,-275.,141.4,                 69P     48
-1.27000000000011,-1.4803424242424,0.,0.,0.,0.;                       69P     49
126,1,1,0,0,1,0,-0.254,-0.254,0.,0.,1.,1.,-275.,141.4,                71P     50
-1.27000000000011,-275.,141.4,1.26999999999989,-0.254,0.,0.,0.,       71P     51
0.;                                                                   71P     52
126,1,1,0,0,1,0,-1.4803424242424,-1.4803424242424,0.,0.,1.,1.,        73P     53
-275.,141.4,1.26999999999989,-289.803424242424,141.4,                 73P     54
1.26999999999988,-1.4803424242424,0.,0.,0.,0.;                        73P     55
126,1,1,0,0,1,0,-18.6740911172846,-18.6740911172846,0.,0.,1.,1.,      75P     56
-289.803424242424,141.4,1.26999999999981,-200.,141.4,165.,            75P     57
-18.6740911172846,0.,0.,0.,0.;                                        75P     58
126,1,1,0,0,1,0,-40.,-40.,0.,0.,1.,1.,-200.,141.4,165.,200.,          77P     59
141.4,165.,-40.,0.,0.,0.,0.;                                          77P     60
126,1,1,0,0,1,0,-18.6740911172846,-18.6740911172846,0.,0.,1.,1.,      79P     61
200.,141.4,165.,289.803424242424,141.4,1.26999999999989,              79P     62
-18.6740911172846,0.,0.,0.,0.;                                        79P     63
126,1,1,0,0,1,0,-1.4803424242424,-1.4803424242424,0.,0.,1.,1.,        81P     64
289.803424242424,141.4,1.26999999999989,275.,141.4,                   81P     65
1.26999999999989,-1.4803424242424,0.,0.,0.,0.;                        81P     66
126,1,1,0,0,1,0,-0.254,-0.254,0.,0.,1.,1.,275.,141.4,                 83P     67
1.26999999999989,275.,141.4,-1.27000000000011,-0.254,0.,0.,0.,        83P     68
0.;                                                                   83P     69
126,1,1,0,0,1,0,-0.0400000000000009,-0.0400000000000009,              85P     70
0.0399999999999991,0.0399999999999991,1.,1.,289.803424242424,         85P     71
140.6,-1.27000000000009,289.803424242424,141.4,                       85P     72
-1.27000000000009,-0.0400000000000009,0.0399999999999991,0.,0.,       85P     73
0.;                                                                   85P     74
126,1,1,0,0,1,0,0.,0.,18.6740911172846,18.6740911172846,1.,1.,        87P     75
200.,140.6,-165.,289.803424242424,140.6,-1.26999999999999,0.,         87P     76
18.6740911172846,0.,0.,0.;                                            87P     77
126,1,1,0,0,1,0,-0.0399999999999991,-0.0399999999999991,              89P     78
0.0400000000000009,0.0400000000000009,1.,1.,200.,141.4,-165.,         89P     79
200.,140.6,-165.,-0.0399999999999991,0.0400000000000009,0.,0.,        89P     80
0.;                                                                   89P     81
126,1,1,0,0,1,0,0.,0.,40.,40.,1.,1.,-200.,140.6,-165.,200.,           91P     82
140.6,-165.,0.,40.,0.,0.,0.;                                          91P     83
126,1,1,0,0,1,0,-0.0399999999999991,-0.0399999999999991,              93P     84
0.0400000000000009,0.0400000000000009,1.,1.,-200.,141.4,-165.,        93P     85
-200.,140.6,-165.,-0.0399999999999991,0.0400000000000009,0.,0.,       93P     86
0.;                                                                   93P     87
126,1,1,0,0,1,0,0.,0.,18.6740911172846,18.6740911172846,1.,1.,        95P     88
-289.803424242424,140.6,-1.2700000000001,-200.,140.6,-165.,0.,        95P     89
18.6740911172846,0.,0.,0.;                                            95P     90
126,1,1,0,0,1,0,-0.0399999999999991,-0.0399999999999991,              97P     91
0.0400000000000009,0.0400000000000009,1.,1.,-289.803424242424,        97P     92
141.4,-1.2700000000001,-289.803424242424,140.6,-1.2700000000001,      97P     93
-0.0399999999999991,0.0400000000000009,0.,0.,0.;                      97P     94
126,1,1,0,0,1,0,0.,0.,1.4803424242424,1.4803424242424,1.,1.,          99P     95
-275.,140.6,-1.27000000000011,-289.803424242424,140.6,                99P     96
-1.2700000000001,0.,1.4803424242424,0.,0.,0.;                         99P     97
126,1,1,0,0,1,0,-0.0399999999999991,-0.0399999999999991,             101P     98
0.0400000000000009,0.0400000000000009,1.,1.,-275.,141.4,             101P     99
-1.27000000000011,-275.,140.6,-1.27000000000011,                     101P    100
-0.0399999999999991,0.0400000000000009,0.,0.,0.;                     101P    101
126,1,1,0,0,1,0,0.,0.,0.254,0.254,1.,1.,-275.,140.6,                 103P    102
1.26999999999989,-275.,140.6,-1.27000000000011,0.,0.254,0.,0.,       103P    103
0.;                                                                  103P    104
126,1,1,0,0,1,0,-0.0399999999999991,-0.0399999999999991,             105P    105
0.0400000000000009,0.0400000000000009,1.,1.,-275.,141.4,             105P    106
1.26999999999989,-275.,140.6,1.26999999999989,                       105P    107
-0.0399999999999991,0.0400000000000009,0.,0.,0.;                     105P    108
126,1,1,0,0,1,0,0.,0.,1.4803424242424,1.4803424242424,1.,1.,         107P    109
-289.803424242424,140.6,1.26999999999988,-275.,140.6,                107P    110
1.26999999999989,0.,1.4803424242424,0.,0.,0.;                        107P    111
126,1,1,0,0,1,0,-0.0399999999999991,-0.0399999999999991,             109P    112
0.0400000000000009,0.0400000000000009,1.,1.,-289.803424242424,       109P    113
141.4,1.26999999999988,-289.803424242424,140.6,1.26999999999988,     109P    114
-0.0399999999999991,0.0400000000000009,0.,0.,0.;                     109P    115
126,1,1,0,0,1,0,0.,0.,18.6740911172846,18.6740911172846,1.,1.,       111P    116
-200.,140.6,165.,-289.803424242424,140.6,1.26999999999981,0.,        111P    117
18.6740911172846,0.,0.,0.;                                           111P    118
126,1,1,0,0,1,0,-0.0399999999999991,-0.0399999999999991,             113P    119
0.0400000000000009,0.0400000000000009,1.,1.,-200.,141.4,165.,        113P    120
-200.,140.6,165.,-0.0399999999999991,0.0400000000000009,0.,0.,       113P    121
0.;                                                                  113P    122
126,1,1,0,0,1,0,0.,0.,40.,40.,1.,1.,200.,140.6,165.,-200.,140.6,     115P    123
165.,0.,40.,0.,0.,0.;                                                115P    124
126,1,1,0,0,1,0,-0.0399999999999991,-0.0399999999999991,             117P    125
0.0400000000000009,0.0400000000000009,1.,1.,200.,141.4,165.,         117P    126
200.,140.6,165.,-0.0399999999999991,0.0400000000000009,0.,0.,0.;     117P    127
126,1,1,0,0,1,0,0.,0.,18.6740911172846,18.6740911172846,1.,1.,       119P    128
289.803424242424,140.6,1.26999999999989,200.,140.6,165.,0.,          119P    129
18.6740911172846,0.,0.,0.;                                           119P    130
126,1,1,0,0,1,0,-0.0399999999999991,-0.0399999999999991,             121P    131
0.0400000000000009,0.0400000000000009,1.,1.,289.803424242424,        121P    132
141.4,1.26999999999989,289.803424242424,140.6,1.26999999999989,      121P    133
-0.0399999999999991,0.0400000000000009,0.,0.,0.;                     121P    134
126,1,1,0,0,1,0,0.,0.,1.4803424242424,1.4803424242424,1.,1.,         123P    135
275.,140.6,1.26999999999989,289.803424242424,140.6,                  123P    136
1.26999999999989,0.,1.4803424242424,0.,0.,0.;                        123P    137
126,1,1,0,0,1,0,-0.0399999999999991,-0.0399999999999991,             125P    138
0.0400000000000009,0.0400000000000009,1.,1.,275.,141.4,              125P    139
1.26999999999989,275.,140.6,1.26999999999989,                        125P    140
-0.0399999999999991,0.0400000000000009,0.,0.,0.;                     125P    141
126,1,1,0,0,1,0,0.,0.,0.254,0.254,1.,1.,275.,140.6,                  127P    142
-1.27000000000011,275.,140.6,1.26999999999989,0.,0.254,0.,0.,0.;     127P    143
126,1,1,0,0,1,0,-0.0399999999999991,-0.0399999999999991,             129P    144
0.0400000000000009,0.0400000000000009,1.,1.,275.,141.4,              129P    145
-1.27000000000011,275.,140.6,-1.27000000000011,                      129P    146
-0.0399999999999991,0.0400000000000009,0.,0.,0.;                     129P    147
126,1,1,0,0,1,0,0.,0.,1.4803424242424,1.4803424242424,1.,1.,         131P    148
289.803424242424,140.6,-1.27000000000009,275.,140.6,                 131P    149
-1.2700000000001,0.,1.4803424242424,0.,0.,0.;                        131P    150
128,1,1,1,1,0,0,1,0,0,-165.001,-165.001,165.001,165.001,             133P    151
-289.804424242424,-289.804424242424,289.804424242424,                133P    152
289.804424242424,1.,1.,1.,1.,-289.804424242424,141.4,-165.001,       133P    153
-289.804424242424,141.4,165.001,289.804424242424,141.4,-165.001,     133P    154
289.804424242424,141.4,165.001,-165.001,165.001,                     133P    155
-289.804424242424,289.804424242424;                                  133P    156
128,1,1,1,1,0,0,1,0,0,-0.00100000000000026,-0.00100000000000026,     135P    157
186.741911172846,186.741911172846,-0.400999999999996,                135P    158
-0.400999999999996,0.401000000000148,0.401000000000148,1.,1.,1.,     135P    159
1.,199.999519101499,141.401,-165.000876776272,289.803905140925,      135P    160
141.401,-1.26912322372757,199.999519101499,140.599,                  135P    161
-165.000876776272,289.803905140925,140.599,-1.26912322372757,        135P    162
-0.00100000000000026,186.741911172846,-0.400999999999996,            135P    163
0.401000000000148;                                                   135P    164
128,1,1,1,1,0,0,1,0,0,-0.001,-0.001,400.001,400.001,                 137P    165
-0.401000000000006,-0.401000000000006,0.401000000000009,             137P    166
0.401000000000009,1.,1.,1.,1.,-200.001,141.401,-165.,200.001,        137P    167
141.401,-165.,-200.001,140.599,-165.,200.001,140.599,-165.,          137P    168
-0.001,400.001,-0.401000000000006,0.401000000000009;                 137P    169
128,1,1,1,1,0,0,1,0,0,-0.00100000000000026,-0.00100000000000026,     139P    170
186.741911172846,186.741911172846,-0.401000000000119,                139P    171
-0.401000000000119,0.401000000000014,0.401000000000014,1.,1.,1.,     139P    172
1.,-289.803905140925,141.401,-1.26912322372771,                      139P    173
-199.999519101499,141.401,-165.000876776272,-289.803905140925,       139P    174
140.599,-1.26912322372771,-199.999519101499,140.599,                 139P    175
-165.000876776272,-0.00100000000000026,186.741911172846,             139P    176
-0.401000000000119,0.401000000000014;                                139P    177
128,1,1,1,1,0,0,1,0,0,-0.001,-0.001,14.804424242424,                 141P    178
14.804424242424,-0.401000000000006,-0.401000000000006,               141P    179
0.401000000000009,0.401000000000009,1.,1.,1.,1.,-274.999,            141P    180
141.401,-1.27000000000011,-289.804424242424,141.401,                 141P    181
-1.2700000000001,-274.999,140.599,-1.27000000000011,                 141P    182
-289.804424242424,140.599,-1.2700000000001,-0.001,                   141P    183
14.804424242424,-0.401000000000006,0.401000000000009;                141P    184
128,1,1,1,1,0,0,1,0,0,-0.0010000000000003,-0.0010000000000003,       143P    185
2.541,2.541,-0.401000000000006,-0.401000000000006,                   143P    186
0.401000000000009,0.401000000000009,1.,1.,1.,1.,-275.,141.401,       143P    187
1.27099999999989,-275.,141.401,-1.27100000000011,-275.,140.599,      143P    188
1.27099999999989,-275.,140.599,-1.27100000000011,                    143P    189
-0.0010000000000003,2.541,-0.401000000000006,0.401000000000009;      143P    190
128,1,1,1,1,0,0,1,0,0,-0.001,-0.001,14.804424242424,                 145P    191
14.804424242424,-0.401000000000006,-0.401000000000006,               145P    192
0.401000000000009,0.401000000000009,1.,1.,1.,1.,                     145P    193
-289.804424242424,141.401,1.26999999999988,-274.999,141.401,         145P    194
1.26999999999989,-289.804424242424,140.599,1.26999999999988,         145P    195
-274.999,140.599,1.26999999999989,-0.001,14.804424242424,            145P    196
-0.401000000000006,0.401000000000009;                                145P    197
128,1,1,1,1,0,0,1,0,0,-0.00100000000000026,-0.00100000000000026,     147P    198
186.741911172846,186.741911172846,-0.401000000000119,                147P    199
-0.401000000000119,0.401000000000014,0.401000000000014,1.,1.,1.,     147P    200
1.,-199.999519101499,141.401,165.000876776272,-289.803905140925,     147P    201
141.401,1.26912322372739,-199.999519101499,140.599,                  147P    202
165.000876776272,-289.803905140925,140.599,1.26912322372739,         147P    203
-0.00100000000000026,186.741911172846,-0.401000000000119,            147P    204
0.401000000000014;                                                   147P    205
128,1,1,1,1,0,0,1,0,0,-0.001,-0.001,400.001,400.001,                 149P    206
-0.400999999999991,-0.400999999999991,0.401000000000009,             149P    207
0.401000000000009,1.,1.,1.,1.,200.001,141.401,165.,-200.001,         149P    208
141.401,165.,200.001,140.599,165.,-200.001,140.599,165.,-0.001,      149P    209
400.001,-0.400999999999991,0.401000000000009;                        149P    210
128,1,1,1,1,0,0,1,0,0,-0.00100000000000026,-0.00100000000000026,     151P    211
186.741911172846,186.741911172846,-0.401000000000006,                151P    212
-0.401000000000006,0.401000000000132,0.401000000000132,1.,1.,1.,     151P    213
1.,289.803905140925,141.401,1.2691232237275,199.999519101499,        151P    214
141.401,165.000876776272,289.803905140925,140.599,                   151P    215
1.2691232237275,199.999519101499,140.599,165.000876776272,           151P    216
-0.00100000000000026,186.741911172846,-0.401000000000006,            151P    217
0.401000000000132;                                                   151P    218
128,1,1,1,1,0,0,1,0,0,-0.001,-0.001,14.804424242424,                 153P    219
14.804424242424,-0.401000000000006,-0.401000000000006,               153P    220
0.401000000000009,0.401000000000009,1.,1.,1.,1.,274.999,141.401,     153P    221
1.26999999999989,289.804424242424,141.401,1.26999999999989,          153P    222
274.999,140.599,1.26999999999989,289.804424242424,140.599,           153P    223
1.26999999999989,-0.001,14.804424242424,-0.401000000000006,          153P    224
0.401000000000009;                                                   153P    225
128,1,1,1,1,0,0,1,0,0,-0.0010000000000003,-0.0010000000000003,       155P    226
2.541,2.541,-0.401000000000006,-0.401000000000006,                   155P    227
0.401000000000011,0.401000000000011,1.,1.,1.,1.,275.,141.401,        155P    228
-1.27100000000011,275.,141.401,1.27099999999989,275.,140.599,        155P    229
-1.27100000000011,275.,140.599,1.27099999999989,                     155P    230
-0.0010000000000003,2.541,-0.401000000000006,0.401000000000011;      155P    231
128,1,1,1,1,0,0,1,0,0,-0.001,-0.001,14.804424242424,                 157P    232
14.804424242424,-0.401000000000006,-0.401000000000006,               157P    233
0.401000000000009,0.401000000000009,1.,1.,1.,1.,                     157P    234
289.804424242424,141.401,-1.27000000000009,274.999,141.401,          157P    235
-1.2700000000001,289.804424242424,140.599,-1.27000000000009,         157P    236
274.999,140.599,-1.2700000000001,-0.001,14.804424242424,             157P    237
-0.401000000000006,0.401000000000009;                                157P    238
128,1,1,1,1,0,0,1,0,0,-165.001,-165.001,165.001,165.001,             159P    239
-289.804424242424,-289.804424242424,289.804424242424,                159P    240
289.804424242424,1.,1.,1.,1.,-289.804424242424,140.6,165.001,        159P    241
-289.804424242424,140.6,-165.001,289.804424242424,140.6,165.001,     159P    242
289.804424242424,140.6,-165.001,-165.001,165.001,                    159P    243
-289.804424242424,289.804424242424;                                  159P    244
502,24,275.,141.4,-1.27000000000011,289.803424242424,141.4,          161P    245
-1.27000000000009,200.,141.4,-165.,-200.,141.4,-165.,                161P    246
-289.803424242424,141.4,-1.2700000000001,-275.,141.4,                161P    247
-1.27000000000011,-275.,141.4,1.26999999999989,                      161P    248
-289.803424242424,141.4,1.26999999999988,-200.,141.4,165.,200.,      161P    249
141.4,165.,289.803424242424,141.4,1.26999999999989,275.,141.4,       161P    250
1.26999999999989,289.803424242424,140.6,-1.27000000000009,200.,      161P    251
140.6,-165.,-200.,140.6,-165.,-289.803424242424,140.6,               161P    252
-1.2700000000001,-275.,140.6,-1.27000000000011,-275.,140.6,          161P    253
1.26999999999989,-289.803424242424,140.6,1.26999999999988,-200.,     161P    254
140.6,165.,200.,140.6,165.,289.803424242424,140.6,                   161P    255
1.26999999999989,275.,140.6,1.26999999999989,275.,140.6,             161P    256
-1.27000000000011;                                                   161P    257
504,36,61,161,1,161,2,63,161,2,161,3,65,161,3,161,4,67,161,4,        163P    258
161,5,69,161,5,161,6,71,161,6,161,7,73,161,7,161,8,75,161,8,161,     163P    259
9,77,161,9,161,10,79,161,10,161,11,81,161,11,161,12,83,161,12,       163P    260
161,1,85,161,13,161,2,87,161,14,161,13,89,161,3,161,14,91,161,       163P    261
15,161,14,93,161,4,161,15,95,161,16,161,15,97,161,5,161,16,99,       163P    262
161,17,161,16,101,161,6,161,17,103,161,18,161,17,105,161,7,161,      163P    263
18,107,161,19,161,18,109,161,8,161,19,111,161,20,161,19,113,161,     163P    264
9,161,20,115,161,21,161,20,117,161,10,161,21,119,161,22,161,21,      163P    265
121,161,11,161,22,123,161,23,161,22,125,161,12,161,23,127,161,       163P    266
24,161,23,129,161,1,161,24,131,161,13,161,24;                        163P    267
406,1,5HBody1;                                                       165P    268
314,62.7450980392157,62.7450980392157,62.7450980392157,19HOpaque     167P    269
(160,160,160);                                                       167P    270
314,60.,60.,60.,5HPlate;                                             169P    271
S      1G      3D    170P    271                                        T      1
